<svg xmlns="http://www.w3.org/2000/svg" width="44" height="45" viewBox="0 0 44 45">
  <g id="Icon_Multisserviços_Multisserviços_Internet" data-name="Icon / Multisserviços / Multisserviços Internet" transform="translate(18.489 58.051)">
    <path id="multisservicos-internet" d="M21.994,45A22.19,22.19,0,0,1,.914,28.892a22.8,22.8,0,0,1,1.767-17.12A21.961,21.961,0,0,1,15.755.929,21.626,21.626,0,0,1,22.011,0,22.192,22.192,0,0,1,43.093,16.11,22.614,22.614,0,0,1,28.247,44.071,21.574,21.574,0,0,1,21.994,45ZM32.337,25.587h0A35.811,35.811,0,0,1,24,29.407a35.352,35.352,0,0,1-9.034,1.438A47.428,47.428,0,0,0,21.6,41.31c.143,0,.271.007.4.007A18.052,18.052,0,0,0,32.348,38.05a48.548,48.548,0,0,0-.011-12.463ZM5.155,30.046A18.721,18.721,0,0,0,19.248,41.1a49.55,49.55,0,0,1-6.124-10.233,44.74,44.74,0,0,1-7.969-.821Zm34.995-10.6a45.672,45.672,0,0,1-6.26,5.137,50.5,50.5,0,0,1,.317,11.99A18.947,18.947,0,0,0,40.15,19.442ZM22.011,3.683A18.047,18.047,0,0,0,11.644,6.957a46.907,46.907,0,0,0,1.227,18.31,38.887,38.887,0,0,0,1.355,3.877,33.97,33.97,0,0,0,9.3-1.386,34.485,34.485,0,0,0,8.526-4.007,38.77,38.77,0,0,0-.93-4.014A46.226,46.226,0,0,0,22.4,3.69ZM9.785,8.44a18.875,18.875,0,0,0-5.476,8.882,19.174,19.174,0,0,0,.056,10.524c.029.1.057.2.09.295a41.448,41.448,0,0,0,7.952.994c-.433-1.107-.819-2.245-1.15-3.379A48.407,48.407,0,0,1,9.785,8.44ZM24.739,3.9a47.668,47.668,0,0,1,8,15.347c.332,1.154.613,2.325.836,3.481a42.145,42.145,0,0,0,6.148-5.272l-.077-.3A18.8,18.8,0,0,0,34.05,8.336,18.284,18.284,0,0,0,24.739,3.9Z" transform="translate(-18.489 -58.051)" fill="#e3262e"/>
  </g>
</svg>
